<?xml version="1.0" encoding="UTF-8"?>
<svg width="426px" height="236px" viewBox="0 0 426 236" version="1.1" xmlns="http://www.w3.org/2000/svg" xmlns:xlink="http://www.w3.org/1999/xlink">
    <!-- Generator: Sketch 46.1 (44463) - http://www.bohemiancoding.com/sketch -->
    <title>BAI_steps_illustrations_v3_Sign Up v2</title>
    <desc>Created with Sketch.</desc>
    <defs></defs>
    <g id="Page-1" stroke="none" stroke-width="1" fill="none" fill-rule="evenodd">
        <g id="BAI_steps_illustrations_v3_Sign-Up-v2" transform="translate(1.000000, 1.000000)">
            <g id="Article" transform="translate(240.000000, 2.000000)">
                <path d="M75.31,30.38 L24.92,30.38" id="Shape" stroke="#505763" stroke-width="2" fill="#FFFFFF" fill-rule="nonzero" stroke-linecap="round" stroke-linejoin="round"></path>
                <path d="M16.82,30.38 L0.67,30.38" id="Shape" stroke="#A1A7B3" stroke-width="2" stroke-linecap="round" stroke-linejoin="round"></path>
                <path d="M133.74,11.91 L133.74,79.46" id="Shape" stroke="#A29C98" stroke-width="2" fill="#FFFFFF" fill-rule="nonzero" stroke-linecap="round" stroke-linejoin="round"></path>
                <path d="M122.83,9.85 L68,9.85 C66.3431458,9.85 65,11.1931458 65,12.85 L65,87.28 C65,88.9368542 66.3431458,90.28 68,90.28 L119.49,90.28 C121.464072,90.2112179 123.410546,89.7948416 125.24,89.05 C125.24,89.05 133.79,85.22 133.79,78.98 C133.792022,73.2076969 129.439605,68.3635306 123.7,67.75 C123.7,66.1 123.7,63.39 123.7,61.75 L123.7,4.06 C123.758232,3.02943331 123.694456,1.9955957 123.51,0.98 L124.21,1.12 C129.666389,2.3143552 133.611107,7.06697764 133.78,12.65 L133.84,44.07 C133.84,45.72 133.84,48.43 133.84,50.07 L133.84,65.51 C133.84,67.16 133.84,69.87 133.84,71.51 L133.84,75.98 C133.84,75.98 133.84,69.31 123.84,67.75" id="Shape" fill="#F4F4F4" fill-rule="nonzero"></path>
                <path d="M122.83,9.85 L68,9.85 C66.3431458,9.85 65,11.1931458 65,12.85 L65,87.28 C65,88.9368542 66.3431458,90.28 68,90.28 L119.49,90.28 C121.464072,90.2112179 123.410546,89.7948416 125.24,89.05 C125.24,89.05 133.79,85.22 133.79,78.98 C133.792022,73.2076969 129.439605,68.3635306 123.7,67.75 C123.7,66.1 123.7,63.39 123.7,61.75 L123.7,4.06 C123.758232,3.02943331 123.694456,1.9955957 123.51,0.98 L124.21,1.12 C129.666389,2.3143552 133.611107,7.06697764 133.78,12.65 L133.84,44.07 C133.84,45.72 133.84,48.43 133.84,50.07 L133.84,65.51 C133.84,67.16 133.84,69.87 133.84,71.51 L133.84,75.98 C133.84,75.98 133.84,69.31 123.84,67.75" id="Shape" stroke="#505763" stroke-width="2" stroke-linecap="round" stroke-linejoin="round"></path>
                <polyline id="Shape" stroke="#505763" stroke-width="2" fill="#FFFFFF" fill-rule="nonzero" stroke-linecap="round" stroke-linejoin="round" points="86.94 36.19 76.32 36.19 76.32 25.58 81.95 25.58"></polyline>
                <path d="M94.54,31.93 L114.35,31.93" id="Shape" stroke="#505763" stroke-width="2" fill="#FFFFFF" fill-rule="nonzero" stroke-linecap="round" stroke-linejoin="round"></path>
                <polyline id="Shape" stroke="#505763" stroke-width="2" fill="#FFFFFF" fill-rule="nonzero" stroke-linecap="round" stroke-linejoin="round" points="81.27 29.27 82.95 32.18 88.79 24.26"></polyline>
            </g>
            <g id="Cog" transform="translate(344.000000, 111.000000)" stroke-width="2" stroke-linecap="round" stroke-linejoin="round">
                <ellipse id="Oval" stroke="#505763" fill="#FBE7BA" fill-rule="nonzero" cx="6.29" cy="24.81" rx="5.53" ry="5.57"></ellipse>
                <ellipse id="Oval" stroke="#4A4A4A" fill="#E7F6F6" fill-rule="nonzero" cx="48.49" cy="6.24" rx="5.53" ry="5.57"></ellipse>
                <ellipse id="Oval" stroke="#4A4A4A" fill="#E7F6F6" fill-rule="nonzero" cx="48.49" cy="43.38" rx="5.53" ry="5.57"></ellipse>
                <path d="M43,6.24 L34.7,6.24 C33.9626924,6.23467655 33.2534704,6.52247528 32.7283644,7.04007979 C32.2032583,7.5576843 31.9052853,8.26269217 31.9,9 L31.9,40.6 C31.8973431,41.3373033 32.18769,42.0454635 32.7071668,42.568691 C33.2266436,43.0919186 33.9326967,43.3873526 34.67,43.39 L43,43.39" id="Shape" stroke="#4A4A4A"></path>
                <path d="M31.9,24.81 L11.83,24.81" id="Shape" stroke="#505763"></path>
            </g>
            <path d="M19.06,118.59 L0.41,118.59" id="Shape" stroke="#505763" stroke-width="2" stroke-linecap="round" stroke-linejoin="round"></path>
            <path d="M88.07,118.59 L36.95,118.59" id="Shape" stroke="#505763" stroke-width="2" stroke-linecap="round" stroke-linejoin="round"></path>
            <polygon id="Shape" stroke="#505763" stroke-width="2" fill="#FBE7BA" fill-rule="nonzero" stroke-linecap="round" stroke-linejoin="round" points="54.82 128.63 41.3 118.34 54.82 108.06"></polygon>
            <polygon id="Shape" stroke="#505763" stroke-width="2" fill="#FBE7BA" fill-rule="nonzero" stroke-linecap="round" stroke-linejoin="round" points="40.41 128.63 26.89 118.34 40.41 108.06"></polygon>
            <path d="M298.31,195.81 L316.96,195.81" id="Shape" stroke="#231F20" stroke-width="2" stroke-linecap="round" stroke-linejoin="round"></path>
            <path d="M385.6,203.91 L404.25,203.91" id="Shape" stroke="#A1A7B3" stroke-width="2" stroke-linecap="round" stroke-linejoin="round"></path>
            <path d="M348.88,203.91 L376.72,203.91" id="Shape" stroke="#505763" stroke-width="2" stroke-linecap="round" stroke-linejoin="round"></path>
            <polygon id="Shape" stroke="#505763" stroke-width="2" fill="#FFE48C" fill-rule="nonzero" stroke-linecap="round" stroke-linejoin="round" points="373.26 193.87 386.77 204.15 373.26 214.44"></polygon>
            <g id="Laptop" transform="translate(13.000000, 46.000000)">
                <rect id="Rectangle-path" stroke="#645A53" stroke-width="2" fill="#EDECE6" fill-rule="nonzero" stroke-linecap="round" stroke-linejoin="round" x="68.54" y="0.78" width="269.14" height="176.15"></rect>
                <rect id="Rectangle-path" stroke="#645A53" stroke-width="2" fill="#EDECE6" fill-rule="nonzero" stroke-linecap="round" stroke-linejoin="round" x="66.68" y="176.88" width="272.86" height="10.16"></rect>
                <path d="M88.07,187.03 L25.06,187.03" id="Shape" stroke="#505763" stroke-width="2" stroke-linecap="round" stroke-linejoin="round"></path>
                <path d="M16.96,187.03 L0.81,187.03" id="Shape" stroke="#A1A7B3" stroke-width="2" stroke-linecap="round" stroke-linejoin="round"></path>
                <path d="M313.26,187.03 L386.17,187.03" id="Shape" stroke="#505763" stroke-width="2" stroke-linecap="round" stroke-linejoin="round"></path>
                <path d="M394.27,187.03 L410.43,187.03" id="Shape" stroke="#A1A7B3" stroke-width="2" stroke-linecap="round" stroke-linejoin="round"></path>
                <rect id="Rectangle-path" stroke="#645A53" stroke-width="2" fill="#FFFFFF" fill-rule="nonzero" stroke-linecap="round" stroke-linejoin="round" x="80.61" y="11.89" width="244.81" height="155.3"></rect>
                <rect id="Rectangle-path" fill="#E0DEDD" fill-rule="nonzero" x="81.5" y="152.35" width="243.03" height="13.94"></rect>
                <rect id="Rectangle-path" fill="#B5E4B6" fill-rule="nonzero" x="83.46" y="12.81" width="241.05" height="7.65"></rect>
                <rect id="Rectangle-path" fill="#E0DEDD" fill-rule="nonzero" x="183.9" y="177.89" width="33.53" height="5.08"></rect>
                <polygon id="Shape" fill="#F8F7F5" fill-rule="nonzero" points="324.4 152.35 81.5 152.35 81.5 101.33 324.4 56.32"></polygon>
                <rect id="Rectangle-path" fill="#EC5252" fill-rule="nonzero" x="143.95" y="59.37" width="115.23" height="36.65" rx="1"></rect>
                <text id="GO" fill="#FFFFFF" font-family="ZeitungPro-Black, Zeitung Pro" font-size="18" font-weight="700">
                    <tspan x="187.49" y="85.03">GO</tspan>
                </text>
                <path d="M203.31,120 L203.31,120 C200.94,116 200.84,115.26 199.56,113.82 C197.99,112.04 196.41,109.09 193.9,108 C193.16,107.68 192.68,107.33 192.82,107 L192.95,106.73 C194.08,104.99 195.15,105.09 196.62,105.5 C197.614811,105.881514 198.452861,106.585757 199,107.5 C198.521924,106.653305 198.184213,105.734733 198,104.78 L197.55,102.96 C197.47,102.63 195.28,94.3 195.93,93.33 C196.2,92.93 198.06,92.33 198.58,92.79 C198.93,93.09 201.66,101.64 201.83,102.33 C202,103.02 202.29,102.33 202.52,102.26 C205.95,101.94 210.28,101.98 212.22,102.71 C213.32,103.13 213.97,103.15 214.51,105.32 L215.09,107.65 C216.03,111.46 214.56,112.11 215.74,116.89 L203.31,120 Z" id="Shape" stroke="#645A53" stroke-width="2" fill="#FFFFFF" fill-rule="nonzero" stroke-linecap="round" stroke-linejoin="round"></path>
                <rect id="Rectangle-path" stroke="#505763" stroke-width="2" fill="#E8E9EB" fill-rule="nonzero" stroke-linecap="round" stroke-linejoin="round" x="68.54" y="0.78" width="269.14" height="176.15"></rect>
                <rect id="Rectangle-path" stroke="#505763" stroke-width="2" fill="#DEDFE0" fill-rule="nonzero" stroke-linecap="round" stroke-linejoin="round" x="66.68" y="176.88" width="272.86" height="10.16"></rect>
                <rect id="Rectangle-path" stroke="#505763" stroke-width="2" fill="#FFFFFF" fill-rule="nonzero" stroke-linecap="round" stroke-linejoin="round" x="80.61" y="11.89" width="244.81" height="155.3"></rect>
                <rect id="Rectangle-path" fill="#E8E9EB" fill-rule="nonzero" x="81.5" y="152.35" width="243.03" height="13.94"></rect>
                <rect id="Rectangle-path" fill="#E8E9EB" fill-rule="nonzero" x="83.46" y="12.81" width="241.05" height="7.65"></rect>
                <polygon id="Shape" fill="#F8F7F5" fill-rule="nonzero" points="324.4 152.35 81.5 152.35 81.5 101.33 324.4 56.32"></polygon>
                <rect id="Rectangle-path" fill="#EC5252" fill-rule="nonzero" x="143.95" y="59.37" width="115.23" height="36.65" rx="1"></rect>
                <text id="GO" fill="#FFFFFF" font-family="OpenSans-Bold, Open Sans" font-size="18" font-weight="bold">
                    <tspan x="187.49" y="84.03">GO</tspan>
                </text>
                <path d="M203.31,120 L203.31,120 C200.94,116 200.84,115.26 199.56,113.82 C197.99,112.04 196.41,109.09 193.9,108 C193.16,107.68 192.68,107.33 192.82,107 L192.95,106.73 C194.08,104.99 195.15,105.09 196.62,105.5 C197.614811,105.881514 198.452861,106.585757 199,107.5 C198.521924,106.653305 198.184213,105.734733 198,104.78 L197.55,102.96 C197.47,102.63 195.28,94.3 195.93,93.33 C196.2,92.93 198.06,92.33 198.58,92.79 C198.93,93.09 201.66,101.64 201.83,102.33 C202,103.02 202.29,102.33 202.52,102.26 C205.95,101.94 210.28,101.98 212.22,102.71 C213.32,103.13 213.97,103.15 214.51,105.32 L215.09,107.65 C216.03,111.46 214.56,112.11 215.74,116.89 L203.31,120 Z" id="Shape" stroke="#505763" stroke-width="2" fill="#FFFFFF" fill-rule="nonzero" stroke-linecap="round" stroke-linejoin="round"></path>
            </g>
            <g id="graph" transform="translate(33.000000, 149.000000)" stroke-width="2" stroke-linecap="round" stroke-linejoin="round">
                <path d="M48.84,51.64 L75.94,51.64 C76.856581,51.6454747 77.7367735,51.2817214 78.3820775,50.6307734 C79.0273815,49.9798253 79.3834562,49.0964986 79.37,48.18 L79.37,4.36 C79.3834562,3.44350144 79.0273815,2.56017473 78.3820775,1.90922665 C77.7367735,1.25827857 76.856581,0.894525285 75.94,0.9 L19.56,0.9 C17.6132584,0.877157666 16.0051244,2.41421391 15.94,4.36 L15.94,48.18 C16.0051244,50.1257861 17.6132584,51.6628423 19.56,51.64 L38.82,51.64" id="Shape" stroke="#4A4A4A" fill="#B4E0E9" fill-rule="nonzero"></path>
                <polyline id="Shape" stroke="#645A53" points="37.7 48.25 41.09 51.64 37.7 55.03"></polyline>
                <polyline id="Shape" stroke="#505763" points="0.45 28.84 30.56 28.84 32.63 26.19 36.91 31.83 42.15 15.27 47.48 37.29 51.66 27.25 53.6 30.25 59.94 16.86 64.34 25.49 89.46 25.67"></polyline>
            </g>
            <g id="Bubble_1" transform="translate(60.000000, 0.000000)" stroke="#505763" fill-rule="nonzero" stroke-width="2" stroke-linecap="round" stroke-linejoin="round">
                <path d="M0,41.56 C0,40.83 0,40.16 0.06,39.56 C0.06,38.86 0.103333333,38.37 0.19,37.91 C2.31,17 21.19,0.6 45.47,0.6 C71.11,0.6 90.94,18.96 90.94,41.6 C90.94,64.24 71.11,82.6 45.47,82.6 L45.47,93.4 C45.47,93.4 2.16,79.61 0.1,44.12 C0,43.28 0,42.42 0,41.56 Z" id="Shape" fill="#FBE7BA"></path>
                <circle id="Oval" fill="#FFFFFF" cx="65.06" cy="43.75" r="4.77"></circle>
                <circle id="Oval" fill="#FFFFFF" cx="45.47" cy="43.75" r="4.77"></circle>
                <circle id="Oval" fill="#FFFFFF" cx="25.88" cy="43.75" r="4.77"></circle>
            </g>
            <g id="Bubble_2" transform="translate(284.000000, 149.000000)" stroke="#505763" fill-rule="nonzero" stroke-width="2" stroke-linecap="round" stroke-linejoin="round">
                <path d="M58.1,26.43 C58.1,25.96 58.1,25.53 58.1,25.11 C58.1,25.11 58.1,25.03 58.1,24.99 C58.1,24.6566667 58.0733333,24.3433333 58.02,24.05 C56.66,10.6 44.77,0.05 29.18,0.05 C12.69,0.05 0.18,11.86 0.18,26.43 C0.18,41 12.65,52.81 29.18,52.81 L29.18,59.81 C29.18,59.81 56.75,50.94 58.08,28.11 C58.07,27.53 58.1,27 58.1,26.43 Z" id="Shape" fill="#FBE7BA"></path>
                <circle id="Oval" fill="#FFFFFF" cx="16.53" cy="27.84" r="3.07"></circle>
                <circle id="Oval" fill="#FFFFFF" cx="29.13" cy="27.84" r="3.07"></circle>
                <circle id="Oval" fill="#FFFFFF" cx="41.74" cy="27.84" r="3.07"></circle>
            </g>
        </g>
    </g>
</svg>